<svg xmlns="http://www.w3.org/2000/svg" viewBox="0 0 383.7 334.01"><defs><style>.cls-1,.cls-8{fill:#f1f2f2;}.cls-1,.cls-5{stroke:#f1f2f2;}.cls-1,.cls-11,.cls-2,.cls-3,.cls-4,.cls-5,.cls-6,.cls-7,.cls-8{stroke-miterlimit:10;}.cls-2{fill:#cccad4;}.cls-2,.cls-3,.cls-8{stroke:#6d6e71;}.cls-3,.cls-5,.cls-6,.cls-7{fill:none;}.cls-4{fill:#d1d3d4;}.cls-4,.cls-6{stroke:#808285;}.cls-7{stroke:#928677;}.cls-9{fill:#a3b58d;}.cls-10{fill:#c1aea6;}.cls-11{fill:#414042;stroke:#414042;}</style></defs><title>Asset 1</title><g id="Layer_2" data-name="Layer 2"><g id="Layer_1-2" data-name="Layer 1"><rect class="cls-1" x="0.5" y="0.5" width="382.7" height="333.01"/><ellipse class="cls-2" cx="195.35" cy="103.33" rx="85.54" ry="12.65"/><line class="cls-3" x1="108.79" y1="102.56" x2="115.83" y2="138.88"/><line class="cls-3" x1="280.97" y1="103.12" x2="277.41" y2="140.35"/><line class="cls-4" x1="115.14" y1="138.3" x2="119.44" y2="140.08"/><line class="cls-4" x1="278.43" y1="138.88" x2="273.66" y2="140.08"/><path class="cls-5" d="M142.72,289.43"/><path class="cls-5" d="M115.83,131.65"/><line class="cls-6" x1="119.44" y1="140.08" x2="138.72" y2="282.25"/><line class="cls-6" x1="273.66" y1="140.08" x2="261.61" y2="283.45"/><path class="cls-3" d="M138.72,282.25c1.5,33.45,124.91,36.78,122.89,1.2"/><line class="cls-3" x1="114.62" y1="111.16" x2="119.44" y2="134.06"/><line class="cls-3" x1="276.07" y1="109.96" x2="273.66" y2="136.47"/><line class="cls-3" x1="119.44" y1="134.06" x2="124.26" y2="135.26"/><line class="cls-3" x1="273.66" y1="136.47" x2="267.64" y2="138.88"/><line class="cls-3" x1="124.26" y1="135.26" x2="143.54" y2="283.45"/><line class="cls-7" x1="267.64" y1="138.88" x2="256.79" y2="288.27"/><path class="cls-7" d="M143.54,283.45c3.61,21.69,94,32.53,113.25,4.82"/><path class="cls-7" d="M114.62,111.16c26.26,9.43,120.48,17.35,161.45-1.2"/><ellipse class="cls-8" cx="190.53" cy="26.22" rx="9.04" ry="3.01"/><line class="cls-3" x1="199.56" y1="26.22" x2="204.38" y2="100.32"/><line class="cls-3" x1="181.49" y1="26.22" x2="187.52" y2="101.53"/><path class="cls-3" d="M187.52,101.53c0-.67,8.43,3.61,16.87-1.2"/><path class="cls-9" d="M150.31,168.47a187.48,187.48,0,0,1,.3,48.1l14.73-2a412,412,0,0,1-4.82-43.9h-15c1,12.16,2.4,24.27,4.25,36.32,1.27,8.26,15.76,6.41,14.73-2l-4-32.42c-.49-4-3.1-7.5-7.5-7.5-3.83,0-7.8,3.44-7.5,7.5l3.9,52.41c.71,9.53,15.52,9.71,15,0l-2.89-54.32c-.51-9.58-15.35-9.7-15,0l1.82,50.14c.29,8,13.27,10.71,14.73,2l7.79-46.43H156.42a154.72,154.72,0,0,1-1.51,52l14.73,2,4.69-58.82c.66-8.32-13.46-10.38-14.73-2L151,226.17l14.73,2Q165.28,194,168.16,160h-15q.19,38.48-2.92,76.86h15a243.88,243.88,0,0,1,7.21-51.13l-14.73-2-.1,52.2c0,9.77,14.24,9.51,15,0a359.53,359.53,0,0,1,8.68-54.77l-14.73-2,3.13,81.57c.37,9.62,14.85,9.69,15,0q.8-53.46-1.94-106.89h-15l4.83,79.84c.6,9.87,13.81,9.4,15,0a371.46,371.46,0,0,0,2.74-59.52h-15A464.53,464.53,0,0,1,177.09,239h15l-4.75-43.8c-1-9.4-14.75-9.87-15,0L171,249.29h15a659.78,659.78,0,0,1,2.14-71.21h-15l5,59.29c.8,9.47,15.25,9.79,15,0l-1.17-45c-.25-9.63-15-9.68-15,0l0,51.11c0,9.66,14.87,9.66,15,0q.36-26.11,2.34-52.16h-15a494.27,494.27,0,0,1,2.9,55.15c0,9.66,14.89,9.66,15,0q.31-28.18-1.21-56.33c-.52-9.57-15.16-9.72-15,0l1,61.43h15l-3.88-73.7c-.5-9.58-15.32-9.7-15,0l2.28,70.23h15l-2.19-60.22-14.73,2a318.67,318.67,0,0,1,4.86,40.61c.55,9.87,13.83,9.4,15,0a302.36,302.36,0,0,0,2.32-36.71l-14.73,2a250.63,250.63,0,0,1,3.33,31.6h15l-6.53-59.61c-1-9.36-15.06-9.88-15,0l.39,69.42h15l-3-70.81-14.73,2,12.42,85.78c.53,3.67,4.94,5.82,8.23,5.37,4-.54,6.05-3.6,6.5-7.37l7.23-60.41h-15q-.42,32.16-4,64.14h15l-4.61-82.27c-.54-9.59-15.48-9.68-15,0l3.18,64.17c.48,9.63,14.61,9.68,15,0l2.85-71.23h-15l.31,68.54c0,8.13,13.54,10.61,14.73,2L216,210H201.52a129.19,129.19,0,0,1,3.31,33.36c-.28,9.7,14.43,9.58,15,0l4-68.19h-15q-1.52,29.82-4.59,59.53h15a371.1,371.1,0,0,1,.84-54.91h-15q1.42,35,.71,70c-.2,9.67,14.7,9.64,15,0a464.05,464.05,0,0,1,10.4-84.64l-14.73-2-3.06,90h15a611.69,611.69,0,0,1,1-77.72h-15l-.31,56.6c-.05,9.87,14,9.37,15,0a208.74,208.74,0,0,1,6.21-31.88l-14.73-2q3.45,28,4.32,56.22c.3,9.63,14.94,9.69,15,0l.42-72.92h-15Q228,212.14,228.84,243c.26,9.64,14.83,9.68,15,0q.69-39.82-1.39-79.62c-.5-9.64-14.51-9.66-15,0l-3.71,72.58h15l-2-47.65c-.4-9.61-15.26-9.69-15,0L223,232.82c.27,9.92,13.82,9.33,15,0L242.75,195,228,197a298.88,298.88,0,0,1,4.56,44.68h15q-1.62-32.88-1-65.8h-15a467.92,467.92,0,0,1-4.47,57.5c-.57,4,1,8,5.24,9.23,3.54,1,8.62-1.24,9.23-5.24q4.42-29.28,10-58.37l-14.73-2a158.32,158.32,0,0,1-3.12,54.13l14.73,2-4.83-56.52c-.81-9.51-15.68-9.69-15,0a480.22,480.22,0,0,1,0,66.34h15l3.32-63H232a396.52,396.52,0,0,1-4,61.83l14.73,2,2.41-36.54c.55-8.36-13.1-10.32-14.73-2q-4.23,21.5-10.48,42.5l14.73,2-4.35-45.1c-.63-6.55-10.54-11.26-14-3.79L193,251.54h13l-17.09-30.69c-3.07-5.52-12.24-4.5-13.71,1.79l-9.26,39.6H180.4a215.85,215.85,0,0,1-6.9-20.68c-2.4-8.62-13.88-6.07-14.73,2l-2.71,25.73,14.73-2-5.62-20.94c-2.23-8.32-14.44-6.37-14.73,2l-.66,18.58h15L162,233.52c-.78-9.5-15.47-9.74-15,0l1.43,29.7c.46,9.61,14.77,9.7,15,0a312.31,312.31,0,0,0-2.5-47.53l-14.73,2,4.56,30.59c1.24,8.33,15.28,6.4,14.73-2q-1.39-21.36-4.09-42.59l-14.73,2L153,245c1.32,8.28,15.43,6.42,14.73-2q-2-23.61-6-47c-1.44-8.23-15.63-6.43-14.73,2l3,28.19,14.73-2-6.79-34.45c-1.71-8.69-14.24-6-14.73,2l-1.39,22.47h15A428.08,428.08,0,0,0,139.3,136.7l-13.71,5.78a26.36,26.36,0,0,1,5.32,14.19l14-3.79L142,148.58c-3.79-5.67-14.62-4.18-14,3.79l5.33,66c.77,9.56,15.78,9.64,15,0l-5.33-66-14,3.79,2.88,4.31c3.85,5.77,14.43,4.13,14-3.79a40.61,40.61,0,0,0-7.37-21.76c-4.62-6.44-16.55-2.89-13.71,5.78a407.48,407.48,0,0,1,16.93,73.53c1.23,9.36,14.39,9.9,15,0l1.39-22.47-14.73,2,6.79,34.45c1.61,8.18,15.63,6.46,14.73-2l-3-28.19-14.73,2q3.73,21.37,5.5,43l14.73-2-6.28-39.3c-1.32-8.25-15.8-6.41-14.73,2q2.7,21.23,4.09,42.59l14.73-2-4.56-30.59c-1.23-8.27-15.82-6.4-14.73,2a312.31,312.31,0,0,1,2.5,47.53h15L162,233.52H147l2.74,33.41c.78,9.52,14.65,9.77,15,0l.66-18.58-14.73,2,5.62,20.94c2.33,8.67,13.89,6,14.73-2l2.71-25.73-14.73,2a215.85,215.85,0,0,0,6.9,20.68c2.48,6.34,12.62,7.87,14.46,0l9.26-39.6L176,228.43,193,259.11c2.56,4.59,10.57,5.19,13,0l23.29-50.75-14-3.79,4.35,45.1c.78,8.12,12.19,10.54,14.73,2q6.25-21,10.48-42.5l-14.73-2-2.41,36.54c-.55,8.31,13.51,10.41,14.73,2A421.57,421.57,0,0,0,247,179.9c-.11-9.7-14.5-9.6-15,0l-3.32,63c-.51,9.68,14.34,9.57,15,0a480.22,480.22,0,0,0,0-66.34h-15l4.83,56.52c.68,7.94,12.67,10.76,14.73,2A170.48,170.48,0,0,0,251.84,177c-.41-3.71-2.53-6.89-6.5-7.37-3.44-.41-7.52,1.66-8.23,5.37q-5.57,29.09-10,58.37l14.46,4a500,500,0,0,0,5-61.49c.17-9.66-14.82-9.66-15,0q-.63,32.91,1,65.8c.47,9.59,15.27,9.7,15,0a325.94,325.94,0,0,0-5.1-48.67c-.66-3.66-4.84-5.83-8.23-5.37-4,.54-6,3.6-6.5,7.37L223,232.82h15l-1.21-44.55h-15l2,47.65c.4,9.66,14.51,9.64,15,0l3.71-72.58h-15q2.07,39.78,1.39,79.62h15q-.82-30.81-3.47-61.53c-.82-9.47-14.94-9.81-15,0L225,254.35h15q-.87-28.2-4.32-56.22c-1-7.87-12.32-10.81-14.73-2A234.25,234.25,0,0,0,214.16,232h15l.31-56.6c.05-9.76-14.27-9.52-15,0a611.69,611.69,0,0,0-1,77.72c.48,9.62,14.67,9.69,15,0l3.06-90c.28-8.35-12.92-10.33-14.73-2a486.64,486.64,0,0,0-10.94,88.63h15q.71-35-.71-70c-.4-9.77-14.15-9.52-15,0a371.1,371.1,0,0,0-.84,54.91c.57,9.78,14,9.5,15,0q3.08-29.7,4.59-59.53c.49-9.66-14.43-9.6-15,0l-4,68.19h15A145.51,145.51,0,0,0,216,206c-1.59-6.79-13.42-7.5-14.46,0l-3.76,27.15,14.73,2-.31-68.54c0-9.68-14.61-9.62-15,0l-2.85,71.23h15l-3.18-64.17h-15l4.61,82.27c.55,9.82,13.93,9.45,15,0q3.62-32,4-64.14c.13-9.9-13.88-9.32-15,0l-7.23,60.41,14.73-2-12.42-85.78c-1.21-8.38-15.08-6.36-14.73,2l3,70.81c.4,9.6,15.05,9.71,15,0l-.39-69.42h-15l6.53,59.61c1,9.37,15.43,9.84,15,0a282.56,282.56,0,0,0-3.86-35.59c-1.46-8.49-14.71-6.26-14.73,2a302.36,302.36,0,0,1-2.32,36.71h15a350.47,350.47,0,0,0-5.4-44.59c-1.55-8.33-15-6.39-14.73,2l2.19,60.22c.35,9.62,15.31,9.68,15,0l-2.28-70.23h-15l3.88,73.7c.5,9.58,15.16,9.72,15,0l-1-61.43H181q1.52,28.14,1.21,56.33h15a494.27,494.27,0,0,0-2.9-55.15c-1-9.51-14.26-9.77-15,0q-2,26-2.34,52.16h15l0-51.11H177l1.17,45h15l-5-59.29a7.5,7.5,0,0,0-15,0A659.78,659.78,0,0,0,171,249.29c.23,9.65,14.75,9.66,15,0l1.37-54.12h-15l4.75,43.8c1,9.43,14.58,9.85,15,0a464.53,464.53,0,0,0-1.77-64.78c-.92-9.42-15.34-9.81-15,0a371.46,371.46,0,0,1-2.74,59.52h15l-4.83-79.84c-.58-9.58-15.5-9.68-15,0q2.74,53.4,1.94,106.89h15l-3.13-81.57c-.31-8.18-12.7-10.52-14.73-2A386,386,0,0,0,157.62,236h15l.1-52.2c0-8.36-12.65-10.31-14.73-2a263.71,263.71,0,0,0-7.75,55.12c-.33,9.75,14.23,9.5,15,0q3.11-38.35,2.92-76.86c0-9.79-14.2-9.49-15,0q-2.88,34-2.42,68.13c.11,8.1,13.42,10.63,14.73,2l8.6-56.58-14.73-2-4.69,58.82c-.67,8.37,13.08,10.29,14.73,2a176.53,176.53,0,0,0,1.51-60c-1-7.24-13.28-7.09-14.46,0l-7.79,46.43,14.73,2-1.82-50.14h-15L149.44,225h15l-3.9-52.41h-15l4,32.42,14.73-2c-1.65-10.73-2.86-21.51-3.71-32.33-.75-9.52-15.55-9.71-15,0a449.66,449.66,0,0,0,5.36,47.88c.61,3.67,4.88,5.82,8.23,5.37,4-.54,6.06-3.6,6.5-7.37a201.75,201.75,0,0,0-.84-52.09c-.56-4-5.68-6.23-9.23-5.24-4.31,1.21-5.81,5.18-5.24,9.23Z"/><path class="cls-9" d="M135.78,220.52,140.06,238c2,8,15.75,6.55,14.73-2L154.2,231c-1-8.4-11.62-10.19-14.73-2-3.23,8.52-2.09,17.59,0,26.24,1.92,8,5.33,16.59,3.86,24.93-1.66,9.44,12.79,13.49,14.46,4,1.63-9.24,0-18-2.34-27-2.09-8.06-4.58-16.08-1.5-24.2l-14.73-2,.59,4.95,14.73-2-4.28-17.46c-2.3-9.37-16.77-5.4-14.46,4Z"/><path class="cls-10" d="M147.15,147.58c9.65,0,9.67-15,0-15s-9.67,15,0,15Z"/><path class="cls-9" d="M157.44,137.43a142.66,142.66,0,0,1-14.31,16.86l12.54,3.31a5.4,5.4,0,0,1,.22-4.17H141.43l2.73,9a7.59,7.59,0,0,0,12.54,3.31l6.73-6.25c1.42-1.32,3.24-3.91,5.11-4.28h-4l-1.71-1.26-.76-5.78-.22,1.14c-1.43,7.42,6.75,12.38,12.54,7.3l10.29-9-12.54-3.31a19.09,19.09,0,0,1,1.46,6.47c.16,4.54,4.71,8.93,9.49,7.23a16.06,16.06,0,0,0,8.39-6.37l-14-3.79-.51,9.15c-.53,9.65,14.47,9.62,15,0l.51-9.15c.45-8.11-10-9.27-14-3.79l.58-.53,9.49,7.23a31.72,31.72,0,0,0-2-10.46c-2.08-5.39-8-7.26-12.54-3.31l-10.29,9,12.54,7.3c1.48-7.69-4.9-14.81-13-12.31-6.59,2-12.34,9.6-17.23,14.15l12.54,3.31-2.73-9c-2.22-7.31-12.08-6.93-14.46,0a19.61,19.61,0,0,0-.22,12.15,7.57,7.57,0,0,0,12.54,3.31A167.43,167.43,0,0,0,170.4,145c2.38-3.32.55-8.32-2.69-10.26-3.75-2.25-7.91-.58-10.26,2.69Z"/><path class="cls-9" d="M221.34,163.62l5.78-7.3c4.21-5.32.57-15.09-7.3-12.54A287.74,287.74,0,0,0,186,157.25c-7.58,3.58-2.14,16.89,5.78,13.71l8.45-3.39c2.33-.94,5.4-3,7.91-3l-3.79-1-1.51-2.88-.3.75c-.75.38-1.46,3.34-1.66,4a14.8,14.8,0,0,0-.08,7.69c1,4.3,7.23,7.4,11,4.48a77.41,77.41,0,0,0,15.13-15.29l-13.71-5.78a61.91,61.91,0,0,1-10.08,19.3l13.71,5.78a67,67,0,0,1,13-26.38c3.19-3.89,2.8-11.48-3.31-12.54a199.65,199.65,0,0,0-41.84-2.89c-9.63.38-9.69,14.76,0,15a274.17,274.17,0,0,0,43.5-2.54l-4-14.46-26.79,6.75c-8.1,2-6.55,15.1,2,14.73A126,126,0,0,0,234.3,153c7.49-2.52,6.86-15.88-2-14.73q-23.92,3.11-48,4.34c-7.81.38-15.89,1.13-23.7.65-1.22-.07-2.3-.35-3.5-.53l-.64-.38q-.87-1.57-.52.9c.23.14,3.75-.32,4.85-.35,15.67-.35,31.38-.11,47.06-.17,3.9,0,7.87-.23,11.76,0l3.05.35q1.7.78-.86-1.85l-.27,2c-.38,7.42,7.66,13.82,14.44,9.28l-11.29-6.48-1.17,20.54c-.21,3.68,3,7,6.5,7.37,4,.48,6.75-1.82,8.23-5.37a59.72,59.72,0,0,0,4.35-19.35c.55-8.37-13-10.3-14.73-2l-6,29.45,14.73,2,.64-27.79c.19-8.43-12.65-10.23-14.73-2a382.11,382.11,0,0,0-8,40.57l14.73,2-2.18-18.81c-1.1-9.53-14.12-9.75-15,0L208.26,215h15q.38-30.71,3-61.32l-14.73,2L215.7,174c1.4,6.16,10.77,7.46,13.71,1.79l15.55-30-13-7.57a63,63,0,0,0-6.61,35.67c.94,8,12.14,10.64,14.73,2a226.57,226.57,0,0,1,11.29-30l-13.71-1.79a87.65,87.65,0,0,1,.66,35.46c-2.28,11.72-7,22.88-7.67,34.91-.68,11.47,4.11,22.28,3.25,33.78a110.17,110.17,0,0,1-3.26,17.94c-.68,2.75-1.59,8-4.76,9.07l8.47,3.45c-1.17-2.43-.89-4.53-.72-7.1.23-3.51-1-7.26-1.66-10.71-.93-4.68-7.14-6.95-11-4.48-6.63,4.22-14.18,3.79-20.52-.73-2.26-1.61-5.27-1.1-7.57,0l-7.48,3.57c-6.75,3.22-3.41,14.28,3.79,14L218.1,272a7.59,7.59,0,0,0,6.48-11.29l-3.62-6.6c-1.5-2.73-5.44-4.52-8.47-3.45A64.2,64.2,0,0,1,199.15,254a42.15,42.15,0,0,1-6.37.42c-4.25-.12-.94-.8-1.08,2.57l-1,3.79.5-.93-13.71-1.79,4.14,12.83c2.19,6.78,12.59,7.48,14.46,0l5.3-21.16-14.73-2-.9,16.28c-.22,4,3.61,7.5,7.5,7.5,4.43,0,7.05-3.46,7.5-7.5l2.14-19.32c.92-8.33-13.37-10.34-14.73-2l-4.93,30.16,12.54-3.31a25,25,0,0,0-24.64-4c-8.56,3.13-14.79,9.74-20.58,16.5-3.84,4.49-2.17,10.5,3.31,12.54A76.79,76.79,0,0,0,185,299.27c6.7-.38,11.13-10.71,3.79-14l-8-3.56v13a43,43,0,0,1,12.46-6.18c8-2.42,6.65-14.78-2-14.73l-11.4.07,2,14.73a67.28,67.28,0,0,1,25.71-2.49l-7.5-7.5.05.56,3.71-6.48-.42.23,3.79-1-.66-.06,3.79,1,.45.37,2.2,5.3.07-.66-2.2,5.3c-1.84,1.81-4.19.79-.09,2l4.54,1.33c9.28,2.72,13.25-11.75,4-14.46-6.56-1.92-18.28-6-21,3.84-2.11,7.71,6.44,13.39,13.09,9.76a7.33,7.33,0,0,0,3.71-6.48l-.05-.56a7.76,7.76,0,0,0-7.5-7.5,79.08,79.08,0,0,0-29.7,3c-8,2.38-6.63,14.78,2,14.73l11.4-.07-2-14.73a55.83,55.83,0,0,0-16,7.69c-4.09,2.87-5.61,10.46,0,13l8,3.56,3.79-14a65.52,65.52,0,0,1-27.12-4.11l3.31,12.54c3.49-4.08,7-8.5,11.65-11.35,3.29-2,8.84-3.94,12.35-1.18,3.89,3.05,11.52,2.91,12.54-3.31l4.93-30.16-14.73-2L185.75,264h15l.9-16.28c.47-8.47-12.69-10.15-14.73-2l-5.3,21.16h14.46l-4.14-12.83c-1.89-5.86-10.53-7.73-13.71-1.79-4.38,8.2,2.27,15.61,10.48,16.89,9,1.4,19.34-1.08,27.77-4.06L208,261.66l3.62,6.6L218.1,257l-28.88,1.24,3.79,14,7.48-3.57h-7.57a32.34,32.34,0,0,0,35.66.73l-11-4.48,1.53,7.72v-4a27.36,27.36,0,0,0,2.36,17.66c1.37,2.84,5.52,4.41,8.47,3.45,12-3.91,14.71-16.33,16.94-27.33,1.43-7.08,2.63-14.42,2.17-21.66-.41-6.49-2.35-12.68-3.16-19.1-1.69-13.33,4.78-26.14,7.15-39a106.85,106.85,0,0,0-.84-42.53c-1.32-6-11-7.65-13.71-1.79a254.12,254.12,0,0,0-12.81,33.58l14.73,2a49.12,49.12,0,0,1,4.57-28.1c4.29-8.59-8.49-16.18-13-7.57l-15.55,30L230.17,170,226,151.68c-2-8.72-14-6-14.73,2q-2.62,30.6-3,61.32c-.12,9.8,14.14,9.46,15,0l3.84-42.43h-15l2.18,18.81c.43,3.71,2.52,6.89,6.5,7.37,3.3.39,7.7-1.64,8.23-5.37a382.11,382.11,0,0,1,8-40.57l-14.73-2-.64,27.79c-.19,8.3,13,10.4,14.73,2l6-29.45-14.73-2a47.75,47.75,0,0,1-3.82,15.37l14.73,2,1.17-20.54c.31-5.52-6.67-9.57-11.29-6.48l-.78.52,5.78-.76,2.13,1.58,1,3.79c0-4.44.52-8.13-2.7-11.77-2.51-2.83-6.07-4.2-9.73-4.78-9.06-1.43-18.89-.35-28-.32l-29.41.11c-7.41,0-16.21-.51-21.82,5.34-5.87,6.11-4.06,15.46,2,20.59,6.72,5.68,16.46,4.52,24.63,4.29a599.07,599.07,0,0,0,60.81-4.83l-2-14.73a111.19,111.19,0,0,1-30.84,5.83l2,14.73,26.79-6.75a7.61,7.61,0,0,0,5.24-9.23c-1.21-4.33-5.18-5.78-9.23-5.24a249.81,249.81,0,0,1-39.52,2v15a180.73,180.73,0,0,1,37.85,2.35l-3.31-12.54a83.94,83.94,0,0,0-16.9,33c-2.2,8.76,8.78,12.27,13.71,5.78a73.38,73.38,0,0,0,11.59-22.89c2.7-8.72-8.94-12.14-13.71-5.78a51.83,51.83,0,0,1-9.75,9.91l11,4.48c-.15-.66,1.78-3.54,2-4.5a14.62,14.62,0,0,0,.52-4.34,11.14,11.14,0,0,0-5.43-9.5c-7.1-4-18,3-24.6,5.68l5.78,13.71a256.72,256.72,0,0,1,30.25-12l-7.3-12.54-5.78,7.3c-2.53,3.2-3.07,7.47,0,10.61,2.58,2.64,8.1,3.17,10.61,0Z"/><path class="cls-9" d="M196.65,277a32.3,32.3,0,0,1,9.2.81c.6.14.64,1,1,1.13q1.43-1.61-.13-.81a5.71,5.71,0,0,1-1.59.2c-7.27.75-15,.06-22.29.07-6.6,0-15.26-1.34-19.57,5-3.92,5.74-.55,12.45,5.09,15.27s13.65,2.87,20,3.57a168.14,168.14,0,0,0,20.89,1.13c14.55-.21,28.74-3,41.8-9.54,8.63-4.33,1-17.27-7.57-13-10.91,5.47-23,7.4-35.09,7.49a167,167,0,0,1-18.28-1q-4.21-.43-8.4-1a44.28,44.28,0,0,0-5.14-.77l-1.2-.26q-2.33-1.09,1.32,2.75l-1,3.79q-3.25,1.55-1.43,1.53h23c7.25,0,15.4.62,20.9-5,5.32-5.48,4.45-14.06-.22-19.62-5.3-6.31-13.56-7-21.27-6.73-9.62.4-9.67,15.4,0,15Z"/><path class="cls-9" d="M187.92,299.72l14.6-4.77,5.48-1.79c2.12-.69,5.47-1.14,7.3-2.38q4.68-.81-1.92-2.51a15.36,15.36,0,0,0,1.87,2.26,10.24,10.24,0,0,0,4.48,2.33c4.46,1,8.59-1.49,11.21-4.92,10.46-13.67,12.56-33.52,8.63-49.78-2.27-9.38-16.74-5.41-14.46,4a46,46,0,0,1,.65,19.73,48.93,48.93,0,0,1-2.76,9.34c-.46,1.1-3.14,7.15-3.26,7.18h4q3.57,3,.86-.08a7.18,7.18,0,0,0-1.47-1.31,9.94,9.94,0,0,0-4.62-1.84c-3.69-.48-7.38,1.21-10.82,2.34l-23.73,7.75c-9.14,3-5.23,17.47,4,14.46Z"/><path class="cls-9" d="M228.32,264.94A58.13,58.13,0,0,1,241.14,284c3,7.49,14.52,7,14.73-2l1.19-49.84c.38-16.18,2-32.9.54-49-.34-3.73-1.59-7.69-1.3-11.42.26-3.42,2.18-6.47,3.4-9.61a36.43,36.43,0,0,0,1.48-20.8c-1.44-6.65-5-13.64-12.62-14.05s-16.12,1.83-23.69,2.78c-7.08.89-10.58,9.7-3.79,14,6.39,4,13.47,2.76,20.06,0,2.62-1.11,5.17-2.61,8-3.17.78-.15,2.17-.62,2.87-.12-.5-.36-.33,0-.17.72.65,2.89-.57,6.75-1.07,9.58-.73,4.08-1.58,8.13-2.16,12.23-1.09,7.64-1.27,15.19,1.28,22.58,3.17,9.18,16.22,5.49,14.46-4A55.67,55.67,0,0,1,265.47,157l-14.73-2-3,23.59c-.51,4,3.81,7.5,7.5,7.5,4.48,0,7-3.46,7.5-7.5l3-23.59c1.08-8.52-12.59-10-14.73-2a73.24,73.24,0,0,0-1.15,32.81l14.46-4c-2.89-8.36-1-16.65.56-25.08,1.34-7.25,3.75-16.25.06-23.2-3.53-6.65-10.83-8.71-17.87-7.56a36.88,36.88,0,0,0-9.34,3.15c-2.6,1.18-6.38,3.64-9.11,1.92l-3.79,14,11.58-1.46c2.05-.26,8.84,0,10.27-1.28q1.88,0-1.15-1l.29.81c-.15.93.95,3.34,1.09,4.38a21.18,21.18,0,0,1-.66,8.52c-1.81,6.51-5.27,11.54-4.91,18.6s1.63,13.66,1.57,20.68c-.27,29.23-1.37,58.47-2.06,87.68l14.73-2a76.64,76.64,0,0,0-16.67-25.69c-6.8-6.87-17.41,3.74-10.61,10.61Z"/><path class="cls-9" d="M225.31,170.45l5,6.29c2.72,3.44,7.73,2.25,10.61,0a21.49,21.49,0,0,0,2.55-1.38q-3.23-3.53-2.64-1.64a7,7,0,0,1,.27,2.17c.41,3.55.75,7.1,1.13,10.65l2.36,22.27,14.73-2a33,33,0,0,1-1.44-21.34l-12.54,3.31c1.57,1.81,1.49,4.74,1.57,7,.13,4,.06,8,.05,12q0,11.95-.28,23.89c-.2,9.66,14.8,9.65,15,0q.31-14.81.27-29.63c0-8.7,0-16.94-6-23.85-3.76-4.33-11.15-1.86-12.54,3.31a46.68,46.68,0,0,0,1.44,29.32c1.38,3.51,4.27,5.91,8.23,5.37,3.36-.45,6.9-3.65,6.5-7.37l-2.05-19.37c-.67-6.33-.73-13.13-2.18-19.34a12.09,12.09,0,0,0-10.46-9.65c-5.64-.57-10.32,2.36-14.58,5.68H240.9l-5-6.29c-2.53-3.2-8-2.6-10.61,0-3.17,3.1-2.5,7.45,0,10.61Z"/><path class="cls-9" d="M242.55,249.69A17.82,17.82,0,0,1,251.68,236l-3.79,1,1.53-.14-3.79-1q-1.74-2.31-.55.83l.33,1.82a46.28,46.28,0,0,1,.38,5.32,66.34,66.34,0,0,1-.68,10.9c-1.06,7.41-3.13,14.68-5.13,21.89-2.58,9.32,11.88,13.29,14.46,4,2.52-9.08,4.87-18.18,5.89-27.57.84-7.75,1.47-19.1-2.77-26.11-5.36-8.84-15.33-4.06-20.85,1.79s-8.34,13-9.18,21c-.43,4,3.75,7.5,7.5,7.5,4.41,0,7.07-3.45,7.5-7.5Z"/><path class="cls-9" d="M246.18,178.49a40.38,40.38,0,0,1,2.5,24.73c-2,9.42,12.48,13.44,14.46,4a57.86,57.86,0,0,0-4-36.29c-1.66-3.73-7-4.54-10.26-2.69-3.83,2.18-4.33,6.58-2.69,10.26Z"/><path class="cls-9" d="M124.71,131.14a37.64,37.64,0,0,0,9.65,8l7.57-13a26.1,26.1,0,0,1-3.36-1.82c-1.49-.92,1.06,1-.21-.16-.53-.5-1.06-1-1.57-1.52a7.57,7.57,0,0,0-10.61,0,7.66,7.66,0,0,0,0,10.61,25.14,25.14,0,0,0,8.17,5.85,8.2,8.2,0,0,0,5.78.76,7.5,7.5,0,0,0,1.79-13.71c-.69-.41-1.37-.83-2-1.29a9.49,9.49,0,0,1-1.08-.78c.64.6.78.62.06,0a31.73,31.73,0,0,1-3.56-3.62c-2.54-3-8-2.81-10.61,0-2.94,3.2-2.71,7.39,0,10.61Z"/><path class="cls-10" d="M123.84,129.68A106.3,106.3,0,0,0,120.24,113c-.93-3.07-5.76-1.76-4.82,1.33A106.3,106.3,0,0,1,119,131c.43,3.17,5.24,1.82,4.82-1.33Z"/><path class="cls-10" d="M124.35,133.49c.3,0,.35.09-.26-.07.37.1-.56-.31-.24-.1l-.35-.27.14.14s-.41-.59-.19-.21c.12.21-.21-.68-.1-.21.06.28,0-.69,0-.31s.15-.68,0-.27q-.08.25.05-.12a1.17,1.17,0,0,1,.36-.56l-.07.07a1.51,1.51,0,0,1,.73-.42c-.38.11.59,0,.3,0s.67.15.29,0q.63.29.29.12l-.1-.06q.5.41.28.22l-.12-.12q.38.53.22.28l-.08-.14.17.4q-.09-.38,0,.35l-.07.45a1,1,0,0,1,.07-.21,2.51,2.51,0,0,0-.25-1.93,2.5,2.5,0,0,0-4.57.6,3.84,3.84,0,0,0,1.67,4.36,3.71,3.71,0,0,0,4.64-.35,3.81,3.81,0,0,0,.73-4.22,3.74,3.74,0,0,0-3.6-2.41,2.71,2.71,0,0,0-1.77.73,2.5,2.5,0,0,0,1.77,4.27Z"/><path class="cls-9" d="M263.39,119.68a21.81,21.81,0,0,1-7.95,9.68c-2.67,1.77-.17,6.11,2.52,4.32a26.37,26.37,0,0,0,9.74-11.47c1.27-2.92-3-5.47-4.32-2.52Z"/><path class="cls-9" d="M270.33,112.33a21.91,21.91,0,0,0-4,12.17l3.76-2.16c-7.15-3.75-10.21,4.56-9.55,10.22a2.59,2.59,0,0,0,1.84,2.41c4.45,1,8.72-1.43,9.58-6.07a2.54,2.54,0,0,0-3.67-2.82,7.27,7.27,0,0,0-2.84,10.63,2.55,2.55,0,0,0,2.82,1.15,7.63,7.63,0,0,0,5.4-7.4c.09-3.22-4.91-3.22-5,0L266.9,133l2.82,1.15a2.37,2.37,0,0,1,1-3.79l-3.67-2.82q-.27,2.91-3.43,2.58l1.84,2.41c-.1-.83-.87-7.42,2-5.9a2.53,2.53,0,0,0,3.76-2.16,17.26,17.26,0,0,1,3.35-9.65c1.86-2.64-2.48-5.14-4.32-2.52Z"/><path class="cls-10" d="M270,117.86a8,8,0,0,1-1.73,6,2.58,2.58,0,0,0,0,3.54,2.52,2.52,0,0,0,3.54,0,13.54,13.54,0,0,0,3-10.87c-.19-1.35-1.89-2.06-3.08-1.75a2.56,2.56,0,0,0-1.75,3.08Z"/><path class="cls-10" d="M268.77,118.92l-1.21,7.23a2.57,2.57,0,0,0,1.75,3.08,2.52,2.52,0,0,0,3.08-1.75l1.21-7.23a2.57,2.57,0,0,0-1.75-3.08,2.52,2.52,0,0,0-3.08,1.75Z"/><path class="cls-10" d="M270.07,118.41l-1.35,10.83c-.4,3.19,4.61,3.16,5,0l1.35-10.83c.4-3.19-4.61-3.16-5,0Z"/><path class="cls-10" d="M270.52,119.44a32.07,32.07,0,0,0-10.64,6.86c-2.3,2.25,1.23,5.79,3.54,3.54a25.85,25.85,0,0,1,8.43-5.58c2.95-1.18,1.66-6-1.33-4.82Z"/><path class="cls-9" d="M194.11,135.9c-15.75-.4-33.75-.77-46.43-11.47l-4.24,10.24c22.26.19,44.53.63,66.78.52,20.83-.1,42.07-1.55,61.52-9.58,7-2.9,4-14.52-3.19-11.57-19.14,7.9-39.67,9.12-60.14,9.16-21.66,0-43.32-.34-65-.52-4.9,0-8.32,6.8-4.24,10.24,15.43,13,35.53,14.49,54.91,15,7.72.2,7.72-11.8,0-12Z"/><path class="cls-9" d="M125.47,127.33c4.75-1.32,9.4,1.38,13.92,2.61a66,66,0,0,0,12.69,1.91c9.66.69,18.57,1.37,27.91,4.17,18.5,5.56,36.64,12.62,54.88,19,7.3,2.56,10.44-9,3.19-11.57-19.35-6.77-38.66-14.68-58.46-20-9.77-2.64-19.41-2.75-29.39-3.72-9.5-.92-18.26-6.64-27.92-4-7.43,2.06-4.27,13.64,3.19,11.57Z"/><path class="cls-9" d="M265.16,121.41a8,8,0,0,0-1-6,2.51,2.51,0,0,0-3.42-.9c-5.91,4.48-12.5,2.77-19.37,3.54q-11.19,1.26-22.44,1.82a371.79,371.79,0,0,1-44-.46c-3.21-.22-3.2,4.78,0,5a371.14,371.14,0,0,0,47.94.24c7.87-.48,16-2.12,23.83-2.05,6.33.06,11.24.29,16.6-3.78l-3.42-.9.52,2.13c-.47,3.15,4.34,4.51,4.82,1.33Z"/><path class="cls-9" d="M271.51,112.95l-2.89,20.41c-.45,3.15,4.37,4.51,4.82,1.33l2.89-20.41c.45-3.15-4.37-4.51-4.82-1.33Z"/><path class="cls-9" d="M270,134.31l-2.41,1.2a2.52,2.52,0,0,0-.9,3.42,2.56,2.56,0,0,0,3.42.9l2.41-1.2a2.52,2.52,0,0,0,.9-3.42,2.56,2.56,0,0,0-3.42-.9Z"/><path class="cls-9" d="M119.36,133.85a10.8,10.8,0,0,0,8,1.37,2.52,2.52,0,0,0,1.75-3.08A2.55,2.55,0,0,0,126,130.4a5.59,5.59,0,0,1-4.12-.87c-2.73-1.72-5.24,2.61-2.52,4.32Z"/><path class="cls-9" d="M114.4,115.48A42.64,42.64,0,0,0,118.6,128c1.47,2.86,5.79.34,4.32-2.52a38.38,38.38,0,0,1-3.7-11.36c-.53-3.17-5.34-1.82-4.82,1.33Z"/><path class="cls-9" d="M127.62,149.73l1.47,22.87c.21,3.2,5.21,3.22,5,0l-1.47-22.87c-.21-3.2-5.21-3.22-5,0Z"/><path class="cls-9" d="M128.2,129.68c1.13,3.89-1.35,7.59-2.11,11.31a29.11,29.11,0,0,0-.52,7.75A30.57,30.57,0,0,0,130.9,164c1.8,2.65,6.13.15,4.32-2.52a25.36,25.36,0,0,1-4.47-17.9c.73-5.26,3.85-9.81,2.28-15.2-.9-3.08-5.73-1.77-4.82,1.33Z"/><path class="cls-9" d="M133.24,208.44a90.68,90.68,0,0,1,4.83,26.21L143,234,140.9,222.1c-.48-2.74-5.22-2.14-4.91.66l1.58,14.44c.34,3.15,5.3,3.22,5,0L141,220.82c-.3-3.18-5.3-3.21-5,0l1.54,16.37h5L141,222.76l-4.91.66,2.08,11.89c.49,2.79,5,2.12,4.91-.66a95.54,95.54,0,0,0-5-27.54c-1-3-5.86-1.73-4.82,1.33Z"/><path class="cls-9" d="M149.65,279.43q-2-10.57-3.7-21.2c-.45-2.83-4.91-2.08-4.91.66q0,11.68,0,23.35c0,3.22,5,3.22,5,0q0-11.68,0-23.35l-4.91.66q1.69,10.63,3.7,21.2c.6,3.16,5.42,1.82,4.82-1.33Z"/><path class="cls-9" d="M176.93,295.72c2.86,4,7,5.42,11.7,6.32a104.68,104.68,0,0,0,20.67,1.81c12.3-.14,25.72-1.84,36-9.16,2.6-1.85.1-6.19-2.52-4.32-8.58,6.12-19.3,7.84-29.62,8.36a101.53,101.53,0,0,1-15.3-.38c-4.78-.49-13.4-.69-16.57-5.15-1.85-2.6-6.19-.11-4.32,2.52Z"/><path class="cls-9" d="M175.42,299.05l18,4.94c3.11.85,4.43-4,1.33-4.82l-18-4.94c-3.11-.85-4.43,4-1.33,4.82Z"/><path class="cls-9" d="M258.09,289.48V276.22c0-3.22-5-3.22-5,0v13.25c0,3.22,5,3.22,5,0Z"/><path class="cls-9" d="M184.23,122.68c-7.84-5.77-17.56-4.13-26.64-3.5a69.6,69.6,0,0,1-35-6.7c-2.89-1.38-5.43,2.93-2.52,4.32a75,75,0,0,0,30.69,7.56c10.07.24,22.17-3.84,31,2.64,2.59,1.91,5.09-2.43,2.52-4.32Z"/><path class="cls-9" d="M159.34,122.1,146.13,116c-2.9-1.35-5.44,3-2.52,4.32l13.2,6.14c2.9,1.35,5.44-3,2.52-4.32Z"/><path class="cls-3" d="M135.11,140.08c0,2,16.87,3.61,34.94,4.82"/><path class="cls-3" d="M254.38,142.49c-5.83.72-41.76,5.26-60.24,3.61"/><ellipse class="cls-11" cx="158" cy="275.02" rx="9.64" ry="8.43"/><ellipse class="cls-11" cx="179.68" cy="289.48" rx="9.64" ry="8.43"/><ellipse class="cls-11" cx="180.89" cy="265.38" rx="9.64" ry="8.43"/><ellipse class="cls-11" cx="159.2" cy="252.13" rx="9.64" ry="8.43"/><ellipse class="cls-11" cx="203.25" cy="255.9" rx="9.64" ry="8.43"/><ellipse class="cls-11" cx="200.17" cy="277.43" rx="9.64" ry="8.43"/><ellipse class="cls-11" cx="220.65" cy="288.27" rx="9.64" ry="8.43"/><ellipse class="cls-11" cx="226.67" cy="266.59" rx="9.64" ry="8.43"/><ellipse class="cls-11" cx="244.74" cy="278.63" rx="9.64" ry="8.43"/><ellipse class="cls-11" cx="246.74" cy="253.04" rx="9.64" ry="8.43"/><ellipse class="cls-11" cx="223.06" cy="240.08" rx="9.64" ry="8.43"/><ellipse class="cls-11" cx="180.89" cy="240.08" rx="9.64" ry="8.43"/><ellipse class="cls-11" cx="151.97" cy="230.44" rx="9.64" ry="8.43"/><ellipse class="cls-11" cx="249.43" cy="229.42" rx="9.64" ry="8.43"/></g></g></svg>